<?xml version="1.0" encoding="UTF-8" standalone="no"?>
<!DOCTYPE svg PUBLIC "-//W3C//DTD SVG 1.1//EN"
 "http://www.w3.org/Graphics/SVG/1.1/DTD/svg11.dtd">
<!-- Generated by graphviz version 14.1.3 (20260303.0454)
 -->
<!-- Title: CICDPipeline Pages: 1 -->
<svg width="951pt" height="484pt"
 viewBox="0.00 0.00 951.00 484.00" xmlns="http://www.w3.org/2000/svg" xmlns:xlink="http://www.w3.org/1999/xlink">
<g id="graph0" class="graph" transform="scale(1 1) rotate(0) translate(4 480)">
<title>CICDPipeline</title>
<polygon fill="white" stroke="none" points="-4,4 -4,-480 947.47,-480 947.47,4 -4,4"/>
<g id="clust1" class="cluster">
<title>cluster_github</title>
<polygon fill="#f6f8fa" stroke="#f6f8fa" points="8,-337 8,-468 383,-468 383,-337 8,-337"/>
<text xml:space="preserve" text-anchor="middle" x="195.5" y="-450.7" font-family="Times New Roman,serif" font-size="14.00">GitHub Repository</text>
</g>
<g id="clust2" class="cluster">
<title>cluster_actions</title>
<polygon fill="#fff8e1" stroke="#fff8e1" points="255.75,-8 255.75,-329 403.25,-329 403.25,-8 255.75,-8"/>
<text xml:space="preserve" text-anchor="middle" x="329.5" y="-311.7" font-family="Times New Roman,serif" font-size="14.00">GitHub Actions</text>
</g>
<g id="clust3" class="cluster">
<title>cluster_azure</title>
<polygon fill="#e8f4f8" stroke="#e8f4f8" points="517,-70 517,-208 693.75,-208 693.75,-70 517,-70"/>
<text xml:space="preserve" text-anchor="middle" x="605.38" y="-190.7" font-family="Times New Roman,serif" font-size="14.00">Azure Environments</text>
</g>
<!-- Dev -->
<g id="node1" class="node">
<title>Dev</title>
<ellipse fill="#e1f5ff" stroke="black" cx="870.11" cy="-156" rx="73.36" ry="27.93"/>
<text xml:space="preserve" text-anchor="middle" x="870.11" y="-158.45" font-family="Arial" font-size="14.00">Developer</text>
<text xml:space="preserve" text-anchor="middle" x="870.11" y="-142.7" font-family="Arial" font-size="14.00">Local Machine</text>
</g>
<!-- PR -->
<g id="node2" class="node">
<title>PR</title>
<polygon fill="#ffffff" stroke="black" points="116.38,-435 23.88,-435 23.88,-399 116.38,-399 116.38,-435"/>
<text xml:space="preserve" text-anchor="middle" x="70.12" y="-411.57" font-family="Arial" font-size="14.00">Pull Request</text>
</g>
<!-- Dev&#45;&gt;PR -->
<g id="edge1" class="edge">
<title>Dev&#45;&gt;PR</title>
<path fill="none" stroke="black" d="M822.66,-177.77C740.14,-215.5 561.76,-292.83 403.25,-333 289.8,-361.75 244.44,-310.95 142.25,-368 131.22,-374.16 134.09,-382.08 124.25,-390 123.28,-390.78 122.29,-391.54 121.27,-392.29"/>
<polygon fill="black" stroke="black" points="119.34,-389.38 112.95,-397.82 123.21,-395.21 119.34,-389.38"/>
<text xml:space="preserve" text-anchor="middle" x="460.12" y="-331.58" font-family="Arial" font-size="14.00">1. Create PR</text>
</g>
<!-- CI -->
<g id="node5" class="node">
<title>CI</title>
<polygon fill="#2ea44f" stroke="black" points="377.62,-296.38 281.38,-296.38 281.38,-209.62 377.62,-209.62 377.62,-296.38"/>
<text xml:space="preserve" text-anchor="middle" x="329.5" y="-279.07" font-family="Arial" font-size="14.00" fill="white">CI Workflow</text>
<text xml:space="preserve" text-anchor="middle" x="329.5" y="-263.32" font-family="Arial" font-size="14.00" fill="white">• Lint</text>
<text xml:space="preserve" text-anchor="middle" x="329.5" y="-247.57" font-family="Arial" font-size="14.00" fill="white">• Type Check</text>
<text xml:space="preserve" text-anchor="middle" x="329.5" y="-231.82" font-family="Arial" font-size="14.00" fill="white">• Test</text>
<text xml:space="preserve" text-anchor="middle" x="329.5" y="-216.07" font-family="Arial" font-size="14.00" fill="white">• Build</text>
</g>
<!-- PR&#45;&gt;CI -->
<g id="edge2" class="edge">
<title>PR&#45;&gt;CI</title>
<path fill="none" stroke="black" d="M115.26,-398.69C118.61,-396.13 121.68,-393.24 124.25,-390 144.97,-363.92 119.73,-341.79 142.25,-317.25 175.11,-281.45 199.82,-297.87 245.75,-282 253.75,-279.23 262.19,-276.3 270.48,-273.41"/>
<polygon fill="black" stroke="black" points="271.55,-276.74 279.84,-270.13 269.24,-270.13 271.55,-276.74"/>
<text xml:space="preserve" text-anchor="middle" x="194" y="-319.7" font-family="Arial" font-size="14.00">2. Trigger CI</text>
</g>
<!-- Develop -->
<g id="node3" class="node">
<title>Develop</title>
<polygon fill="#28a745" stroke="black" points="124.25,-381 16,-381 16,-345 124.25,-345 124.25,-381"/>
<text xml:space="preserve" text-anchor="middle" x="70.12" y="-357.57" font-family="Arial" font-size="14.00" fill="white">develop branch</text>
</g>
<!-- Main -->
<g id="node4" class="node">
<title>Main</title>
<polygon fill="#0366d6" stroke="black" points="375,-411 284,-411 284,-375 375,-375 375,-411"/>
<text xml:space="preserve" text-anchor="middle" x="329.5" y="-387.57" font-family="Arial" font-size="14.00" fill="white">main branch</text>
</g>
<!-- Develop&#45;&gt;Main -->
<g id="edge6" class="edge">
<title>Develop&#45;&gt;Main</title>
<path fill="none" stroke="#0366d6" d="M124.45,-369.22C167.7,-374.26 228.49,-381.34 272.46,-386.47"/>
<polygon fill="#0366d6" stroke="#0366d6" points="271.97,-389.93 282.31,-387.62 272.78,-382.98 271.97,-389.93"/>
<text xml:space="preserve" text-anchor="middle" x="194" y="-385.75" font-family="Arial" font-size="14.00">6. Merge to Main</text>
</g>
<!-- DeployDev -->
<g id="node6" class="node">
<title>DeployDev</title>
<polygon fill="#0969da" stroke="black" points="395.25,-191.5 263.75,-191.5 263.75,-120.5 395.25,-120.5 395.25,-191.5"/>
<text xml:space="preserve" text-anchor="middle" x="329.5" y="-174.2" font-family="Arial" font-size="14.00" fill="white">Deploy Dev</text>
<text xml:space="preserve" text-anchor="middle" x="329.5" y="-158.45" font-family="Arial" font-size="14.00" fill="white">• Build</text>
<text xml:space="preserve" text-anchor="middle" x="329.5" y="-142.7" font-family="Arial" font-size="14.00" fill="white">• Deploy to Azure</text>
<text xml:space="preserve" text-anchor="middle" x="329.5" y="-126.95" font-family="Arial" font-size="14.00" fill="white">• Run Smoke Tests</text>
</g>
<!-- Develop&#45;&gt;DeployDev -->
<g id="edge4" class="edge">
<title>Develop&#45;&gt;DeployDev</title>
<path fill="none" stroke="#0969da" stroke-width="2" d="M72.79,-344.66C77.13,-308.37 92.19,-227.42 142.25,-187.25 172.44,-163.02 214.41,-154.49 250.86,-152.34"/>
<polygon fill="#0969da" stroke="#0969da" stroke-width="2" points="250.62,-155.85 260.47,-151.95 250.34,-148.86 250.62,-155.85"/>
<text xml:space="preserve" text-anchor="middle" x="194" y="-189.7" font-family="Arial" font-size="14.00">4. Auto Deploy</text>
</g>
<!-- DeployProd -->
<g id="node7" class="node">
<title>DeployProd</title>
<polygon fill="#cf222e" stroke="black" points="392.62,-102.38 266.38,-102.38 266.38,-15.62 392.62,-15.62 392.62,-102.38"/>
<text xml:space="preserve" text-anchor="middle" x="329.5" y="-85.08" font-family="Arial" font-size="14.00" fill="white">Deploy Production</text>
<text xml:space="preserve" text-anchor="middle" x="329.5" y="-69.33" font-family="Arial" font-size="14.00" fill="white">• Build</text>
<text xml:space="preserve" text-anchor="middle" x="329.5" y="-53.58" font-family="Arial" font-size="14.00" fill="white">• Test</text>
<text xml:space="preserve" text-anchor="middle" x="329.5" y="-37.83" font-family="Arial" font-size="14.00" fill="white">• Manual Approval</text>
<text xml:space="preserve" text-anchor="middle" x="329.5" y="-22.07" font-family="Arial" font-size="14.00" fill="white">• Deploy to Azure</text>
</g>
<!-- Main&#45;&gt;DeployProd -->
<g id="edge7" class="edge">
<title>Main&#45;&gt;DeployProd</title>
<path fill="none" stroke="#cf222e" stroke-width="2" d="M283.82,-378.09C273.93,-373.57 263.98,-367.92 255.75,-361 108.73,-237.41 138.92,-271.75 164.83,-207.12 182.29,-163.6 220.49,-127.92 255.7,-102.5"/>
<polygon fill="#cf222e" stroke="#cf222e" stroke-width="2" points="257.36,-105.61 263.54,-97.01 253.34,-99.88 257.36,-105.61"/>
<text xml:space="preserve" text-anchor="middle" x="194" y="-209.57" font-family="Arial" font-size="14.00">7. Trigger Deploy</text>
</g>
<!-- CI&#45;&gt;Develop -->
<g id="edge3" class="edge">
<title>CI&#45;&gt;Develop</title>
<path fill="none" stroke="#2ea44f" stroke-width="2" d="M281.05,-245.86C241.46,-242.26 184.83,-242.77 142.25,-266.25 115.6,-280.94 96.22,-310.34 84.48,-332.89"/>
<polygon fill="#2ea44f" stroke="#2ea44f" stroke-width="2" points="81.34,-331.34 80.08,-341.86 87.63,-334.42 81.34,-331.34"/>
<text xml:space="preserve" text-anchor="middle" x="194" y="-268.7" font-family="Arial" font-size="14.00">3. Merge if Pass</text>
</g>
<!-- DevEnv -->
<g id="node8" class="node">
<title>DevEnv</title>
<polygon fill="#0078d4" stroke="black" points="665.5,-175.75 545.25,-175.75 545.25,-136.25 665.5,-136.25 665.5,-175.75"/>
<text xml:space="preserve" text-anchor="middle" x="605.38" y="-158.45" font-family="Arial" font-size="14.00" fill="white">Dev Environment</text>
<text xml:space="preserve" text-anchor="middle" x="605.38" y="-142.7" font-family="Arial" font-size="14.00" fill="white">al&#45;hayaat&#45;dev</text>
</g>
<!-- DeployDev&#45;&gt;DevEnv -->
<g id="edge5" class="edge">
<title>DeployDev&#45;&gt;DevEnv</title>
<path fill="none" stroke="#0078d4" stroke-width="2" d="M395.4,-156C436.55,-156 489.82,-156 532.27,-156"/>
<polygon fill="#0078d4" stroke="#0078d4" stroke-width="2" points="532.05,-159.5 542.05,-156 532.05,-152.5 532.05,-159.5"/>
<text xml:space="preserve" text-anchor="middle" x="460.12" y="-158.45" font-family="Arial" font-size="14.00">5. Deploy</text>
</g>
<!-- ProdEnv -->
<g id="node9" class="node">
<title>ProdEnv</title>
<polygon fill="#d13438" stroke="black" points="685.75,-117.75 525,-117.75 525,-78.25 685.75,-78.25 685.75,-117.75"/>
<text xml:space="preserve" text-anchor="middle" x="605.38" y="-100.45" font-family="Arial" font-size="14.00" fill="white">Production Environment</text>
<text xml:space="preserve" text-anchor="middle" x="605.38" y="-84.7" font-family="Arial" font-size="14.00" fill="white">al&#45;hayaat&#45;prod</text>
</g>
<!-- DeployProd&#45;&gt;ProdEnv -->
<g id="edge8" class="edge">
<title>DeployProd&#45;&gt;ProdEnv</title>
<path fill="none" stroke="#d13438" stroke-width="2" stroke-dasharray="5,2" d="M392.99,-67.9C428.17,-72.91 472.77,-79.26 511.93,-84.84"/>
<polygon fill="#d13438" stroke="#d13438" stroke-width="2" points="511.31,-88.28 521.71,-86.23 512.3,-81.35 511.31,-88.28"/>
<text xml:space="preserve" text-anchor="middle" x="460.12" y="-101.34" font-family="Arial" font-size="14.00">8. Deploy</text>
<text xml:space="preserve" text-anchor="middle" x="460.12" y="-85.59" font-family="Arial" font-size="14.00">(After Approval)</text>
</g>
<!-- DevEnv&#45;&gt;Dev -->
<g id="edge9" class="edge">
<title>DevEnv&#45;&gt;Dev</title>
<path fill="none" stroke="gray" stroke-dasharray="5,2" d="M665.99,-156C701.27,-156 746.51,-156 785.33,-156"/>
<polygon fill="gray" stroke="gray" points="785.11,-159.5 795.11,-156 785.11,-152.5 785.11,-159.5"/>
<text xml:space="preserve" text-anchor="middle" x="741.25" y="-158.45" font-family="Arial" font-size="14.00">Test &amp; Verify</text>
</g>
<!-- ProdEnv&#45;&gt;Dev -->
<g id="edge10" class="edge">
<title>ProdEnv&#45;&gt;Dev</title>
<path fill="none" stroke="gray" stroke-dasharray="5,2" d="M685.92,-115.56C720.67,-123.23 761.19,-132.18 795.27,-139.7"/>
<polygon fill="gray" stroke="gray" points="794.09,-143.02 804.61,-141.76 795.6,-136.19 794.09,-143.02"/>
<text xml:space="preserve" text-anchor="middle" x="741.25" y="-138.03" font-family="Arial" font-size="14.00">Monitor</text>
</g>
</g>
</svg>
