<?xml version="1.0" encoding="UTF-8" standalone="no"?>
<!DOCTYPE svg PUBLIC "-//W3C//DTD SVG 1.1//EN"
 "http://www.w3.org/Graphics/SVG/1.1/DTD/svg11.dtd">
<!-- Generated by graphviz version 14.1.3 (20260303.0454)
 -->
<!-- Title: ComponentHierarchy Pages: 1 -->
<svg width="323pt" height="1490pt"
 viewBox="0.00 0.00 323.00 1490.00" xmlns="http://www.w3.org/2000/svg" xmlns:xlink="http://www.w3.org/1999/xlink">
<g id="graph0" class="graph" transform="scale(1 1) rotate(0) translate(4 1486)">
<title>ComponentHierarchy</title>
<polygon fill="white" stroke="none" points="-4,4 -4,-1486 319.25,-1486 319.25,4 -4,4"/>
<g id="clust1" class="cluster">
<title>cluster_pages</title>
<polygon fill="#e1f5ff" stroke="#e1f5ff" points="8,-992 8,-1285 148.75,-1285 148.75,-992 8,-992"/>
<text xml:space="preserve" text-anchor="middle" x="78.38" y="-1267.7" font-family="Times New Roman,serif" font-size="14.00">Pages</text>
</g>
<g id="clust2" class="cluster">
<title>cluster_layout</title>
<polygon fill="#f0f8ff" stroke="#f0f8ff" points="168.75,-1073 168.75,-1474 315.25,-1474 315.25,-1073 168.75,-1073"/>
<text xml:space="preserve" text-anchor="middle" x="242" y="-1456.7" font-family="Times New Roman,serif" font-size="14.00">Layout Components (7)</text>
</g>
<g id="clust3" class="cluster">
<title>cluster_ui</title>
<polygon fill="#fff8e1" stroke="#fff8e1" points="177.38,-556 177.38,-1065 306.62,-1065 306.62,-556 177.38,-556"/>
<text xml:space="preserve" text-anchor="middle" x="242" y="-1047.7" font-family="Times New Roman,serif" font-size="14.00">UI Components (15)</text>
</g>
<g id="clust4" class="cluster">
<title>cluster_forms</title>
<polygon fill="#e8f5e9" stroke="#e8f5e9" points="169.5,-201 169.5,-548 314.5,-548 314.5,-201 169.5,-201"/>
<text xml:space="preserve" text-anchor="middle" x="242" y="-530.7" font-family="Times New Roman,serif" font-size="14.00">Form Components (10)</text>
</g>
<g id="clust5" class="cluster">
<title>cluster_data</title>
<polygon fill="#f3e5f5" stroke="#f3e5f5" points="188.62,-8 188.62,-193 295.38,-193 295.38,-8 188.62,-8"/>
<text xml:space="preserve" text-anchor="middle" x="242" y="-175.7" font-family="Times New Roman,serif" font-size="14.00">Data Display (6)</text>
</g>
<!-- Home -->
<g id="node1" class="node">
<title>Home</title>
<polygon fill="#4a90e2" stroke="black" points="122.38,-1198 34.38,-1198 34.38,-1162 122.38,-1162 122.38,-1198"/>
<text xml:space="preserve" text-anchor="middle" x="78.38" y="-1174.58" font-family="Arial" font-size="14.00" fill="white">Home Page</text>
</g>
<!-- Nav -->
<g id="node6" class="node">
<title>Nav</title>
<polygon fill="none" stroke="black" points="281.38,-1171 201.62,-1171 201.62,-1135 281.38,-1135 281.38,-1171"/>
<text xml:space="preserve" text-anchor="middle" x="241.5" y="-1147.58" font-family="Arial" font-size="14.00">Navigation</text>
</g>
<!-- Home&#45;&gt;Nav -->
<g id="edge1" class="edge">
<title>Home&#45;&gt;Nav</title>
<path fill="none" stroke="black" d="M122.55,-1172.76C143.33,-1169.28 168.38,-1165.09 190.04,-1161.46"/>
<polygon fill="black" stroke="black" points="190.56,-1164.92 199.85,-1159.81 189.41,-1158.01 190.56,-1164.92"/>
</g>
<!-- Footer -->
<g id="node7" class="node">
<title>Footer</title>
<polygon fill="none" stroke="black" points="269,-1225 214,-1225 214,-1189 269,-1189 269,-1225"/>
<text xml:space="preserve" text-anchor="middle" x="241.5" y="-1201.58" font-family="Arial" font-size="14.00">Footer</text>
</g>
<!-- Home&#45;&gt;Footer -->
<g id="edge6" class="edge">
<title>Home&#45;&gt;Footer</title>
<path fill="none" stroke="black" d="M122.55,-1187.24C147.55,-1191.42 178.71,-1196.65 202.73,-1200.67"/>
<polygon fill="black" stroke="black" points="201.95,-1204.09 212.39,-1202.29 203.11,-1197.18 201.95,-1204.09"/>
</g>
<!-- Container -->
<g id="node8" class="node">
<title>Container</title>
<polygon fill="none" stroke="black" points="278.75,-1333 204.25,-1333 204.25,-1297 278.75,-1297 278.75,-1333"/>
<text xml:space="preserve" text-anchor="middle" x="241.5" y="-1309.58" font-family="Arial" font-size="14.00">Container</text>
</g>
<!-- Home&#45;&gt;Container -->
<g id="edge23" class="edge">
<title>Home&#45;&gt;Container</title>
<path fill="none" stroke="black" d="M122.62,-1189.58C132.36,-1193.54 141.84,-1199.14 148.75,-1207 173.22,-1234.86 144.12,-1260.28 168.75,-1288 175.29,-1295.37 184.05,-1300.73 193.2,-1304.63"/>
<polygon fill="black" stroke="black" points="191.99,-1307.92 202.58,-1308.06 194.39,-1301.34 191.99,-1307.92"/>
</g>
<!-- Section -->
<g id="node9" class="node">
<title>Section</title>
<polygon fill="none" stroke="black" points="272,-1279 211,-1279 211,-1243 272,-1243 272,-1279"/>
<text xml:space="preserve" text-anchor="middle" x="241.5" y="-1255.58" font-family="Arial" font-size="14.00">Section</text>
</g>
<!-- Home&#45;&gt;Section -->
<g id="edge27" class="edge">
<title>Home&#45;&gt;Section</title>
<path fill="none" stroke="black" d="M122.82,-1192.58C131.9,-1196.36 141.05,-1201.12 148.75,-1207 160.62,-1216.06 156.83,-1225 168.75,-1234 177.99,-1240.98 189.24,-1246.33 200.06,-1250.36"/>
<polygon fill="black" stroke="black" points="198.62,-1253.56 209.22,-1253.47 200.87,-1246.94 198.62,-1253.56"/>
</g>
<!-- Hero -->
<g id="node14" class="node">
<title>Hero</title>
<polygon fill="none" stroke="black" points="286.62,-762 196.38,-762 196.38,-726 286.62,-726 286.62,-762"/>
<text xml:space="preserve" text-anchor="middle" x="241.5" y="-738.58" font-family="Arial" font-size="14.00">HeroSection</text>
</g>
<!-- Home&#45;&gt;Hero -->
<g id="edge2" class="edge">
<title>Home&#45;&gt;Hero</title>
<path fill="none" stroke="black" d="M122.63,-1171.73C132.73,-1167.73 142.39,-1161.8 148.75,-1153 198.55,-1084.11 118.56,-839.61 168.75,-771 173.24,-764.87 179.29,-760.12 186,-756.46"/>
<polygon fill="black" stroke="black" points="187.14,-759.78 194.79,-752.45 184.24,-753.41 187.14,-759.78"/>
</g>
<!-- FeatureCard -->
<g id="node15" class="node">
<title>FeatureCard</title>
<polygon fill="none" stroke="black" points="287.38,-816 195.62,-816 195.62,-780 287.38,-780 287.38,-816"/>
<text xml:space="preserve" text-anchor="middle" x="241.5" y="-792.58" font-family="Arial" font-size="14.00">FeatureCard</text>
</g>
<!-- Home&#45;&gt;FeatureCard -->
<g id="edge3" class="edge">
<title>Home&#45;&gt;FeatureCard</title>
<path fill="none" stroke="black" d="M122.58,-1171.69C132.68,-1167.69 142.35,-1161.77 148.75,-1153 191.79,-1094.01 125.38,-883.75 168.75,-825 173.06,-819.17 178.78,-814.59 185.12,-811.01"/>
<polygon fill="black" stroke="black" points="186.54,-814.21 194.1,-806.79 183.56,-807.87 186.54,-814.21"/>
</g>
<!-- WhyCard -->
<g id="node16" class="node">
<title>WhyCard</title>
<polygon fill="none" stroke="black" points="278,-654 205,-654 205,-618 278,-618 278,-654"/>
<text xml:space="preserve" text-anchor="middle" x="241.5" y="-630.58" font-family="Arial" font-size="14.00">WhyCard</text>
</g>
<!-- Home&#45;&gt;WhyCard -->
<g id="edge4" class="edge">
<title>Home&#45;&gt;WhyCard</title>
<path fill="none" stroke="black" d="M122.7,-1171.78C132.8,-1167.78 142.44,-1161.83 148.75,-1153 180.42,-1108.66 136.83,-707.16 168.75,-663 174.93,-654.44 184.17,-648.6 193.98,-644.6"/>
<polygon fill="black" stroke="black" points="194.95,-647.97 203.29,-641.44 192.7,-641.34 194.95,-647.97"/>
</g>
<!-- CTASection -->
<g id="node17" class="node">
<title>CTASection</title>
<polygon fill="none" stroke="black" points="285.12,-708 197.88,-708 197.88,-672 285.12,-672 285.12,-708"/>
<text xml:space="preserve" text-anchor="middle" x="241.5" y="-684.58" font-family="Arial" font-size="14.00">CTASection</text>
</g>
<!-- Home&#45;&gt;CTASection -->
<g id="edge5" class="edge">
<title>Home&#45;&gt;CTASection</title>
<path fill="none" stroke="black" d="M122.67,-1171.76C132.77,-1167.76 142.42,-1161.82 148.75,-1153 205.32,-1074.22 111.74,-795.46 168.75,-717 173.54,-710.41 180.13,-705.43 187.4,-701.66"/>
<polygon fill="black" stroke="black" points="188.45,-705.03 196.24,-697.85 185.67,-698.6 188.45,-705.03"/>
</g>
<!-- About -->
<g id="node2" class="node">
<title>About</title>
<polygon fill="#4a90e2" stroke="black" points="121.62,-1252 35.12,-1252 35.12,-1216 121.62,-1216 121.62,-1252"/>
<text xml:space="preserve" text-anchor="middle" x="78.38" y="-1228.58" font-family="Arial" font-size="14.00" fill="white">About Page</text>
</g>
<!-- About&#45;&gt;Container -->
<g id="edge24" class="edge">
<title>About&#45;&gt;Container</title>
<path fill="none" stroke="black" d="M106.81,-1252.38C124.13,-1263.52 147.22,-1277.55 168.75,-1288 176.49,-1291.76 184.9,-1295.34 193.15,-1298.59"/>
<polygon fill="black" stroke="black" points="191.82,-1301.83 202.41,-1302.13 194.32,-1295.29 191.82,-1301.83"/>
</g>
<!-- About&#45;&gt;Section -->
<g id="edge28" class="edge">
<title>About&#45;&gt;Section</title>
<path fill="none" stroke="black" d="M121.71,-1241.09C145.75,-1245.12 175.7,-1250.14 199.51,-1254.13"/>
<polygon fill="black" stroke="black" points="198.72,-1257.55 209.16,-1255.75 199.88,-1250.64 198.72,-1257.55"/>
</g>
<!-- Contact -->
<g id="node3" class="node">
<title>Contact</title>
<polygon fill="#4a90e2" stroke="black" points="127.25,-1090 29.5,-1090 29.5,-1054 127.25,-1054 127.25,-1090"/>
<text xml:space="preserve" text-anchor="middle" x="78.38" y="-1066.58" font-family="Arial" font-size="14.00" fill="white">Contact Page</text>
</g>
<!-- Contact&#45;&gt;Nav -->
<g id="edge7" class="edge">
<title>Contact&#45;&gt;Nav</title>
<path fill="none" stroke="black" d="M127.54,-1086.64C135.03,-1090.05 142.38,-1094.14 148.75,-1099 160.62,-1108.06 156.83,-1117 168.75,-1126 175.32,-1130.96 182.91,-1135.1 190.64,-1138.53"/>
<polygon fill="black" stroke="black" points="189.19,-1141.72 199.77,-1142.2 191.8,-1135.22 189.19,-1141.72"/>
</g>
<!-- Contact&#45;&gt;Footer -->
<g id="edge12" class="edge">
<title>Contact&#45;&gt;Footer</title>
<path fill="none" stroke="black" d="M127.64,-1083.78C135.56,-1087.55 143.03,-1092.49 148.75,-1099 173.22,-1126.86 144.12,-1152.28 168.75,-1180 177.64,-1190 190.61,-1196.31 203.09,-1200.29"/>
<polygon fill="black" stroke="black" points="201.79,-1203.56 212.36,-1202.82 203.63,-1196.81 201.79,-1203.56"/>
</g>
<!-- Contact&#45;&gt;Container -->
<g id="edge25" class="edge">
<title>Contact&#45;&gt;Container</title>
<path fill="none" stroke="black" d="M127.68,-1082.83C135.8,-1086.69 143.34,-1091.91 148.75,-1099 200.04,-1166.11 117.08,-1221.17 168.75,-1288 174.96,-1296.03 183.84,-1301.68 193.25,-1305.64"/>
<polygon fill="black" stroke="black" points="191.96,-1308.9 202.55,-1308.93 194.3,-1302.3 191.96,-1308.9"/>
</g>
<!-- Contact&#45;&gt;Section -->
<g id="edge29" class="edge">
<title>Contact&#45;&gt;Section</title>
<path fill="none" stroke="black" d="M127.44,-1083.01C135.59,-1086.85 143.19,-1092.03 148.75,-1099 186.58,-1146.42 130.66,-1186.8 168.75,-1234 176.54,-1243.65 188.17,-1249.86 199.81,-1253.84"/>
<polygon fill="black" stroke="black" points="198.82,-1257.2 209.39,-1256.61 200.76,-1250.47 198.82,-1257.2"/>
</g>
<!-- Form -->
<g id="node22" class="node">
<title>Form</title>
<polygon fill="none" stroke="black" points="268.5,-353 214.5,-353 214.5,-317 268.5,-317 268.5,-353"/>
<text xml:space="preserve" text-anchor="middle" x="241.5" y="-329.57" font-family="Arial" font-size="14.00">Form</text>
</g>
<!-- Contact&#45;&gt;Form -->
<g id="edge8" class="edge">
<title>Contact&#45;&gt;Form</title>
<path fill="none" stroke="black" d="M127.41,-1061.83C135.77,-1057.91 143.46,-1052.5 148.75,-1045 192.52,-982.97 124.63,-423.79 168.75,-362 176.77,-350.77 190.05,-344.21 203.03,-340.38"/>
<polygon fill="black" stroke="black" points="203.84,-343.78 212.74,-338.02 202.19,-336.98 203.84,-343.78"/>
</g>
<!-- Input -->
<g id="node23" class="node">
<title>Input</title>
<polygon fill="none" stroke="black" points="268.5,-515 214.5,-515 214.5,-479 268.5,-479 268.5,-515"/>
<text xml:space="preserve" text-anchor="middle" x="241.5" y="-491.57" font-family="Arial" font-size="14.00">Input</text>
</g>
<!-- Contact&#45;&gt;Input -->
<g id="edge9" class="edge">
<title>Contact&#45;&gt;Input</title>
<path fill="none" stroke="black" d="M127.7,-1061.61C135.92,-1057.72 143.49,-1052.36 148.75,-1045 180.61,-1000.38 143.5,-600.66 168.75,-552 176.6,-536.87 190.71,-524.67 204.35,-515.65"/>
<polygon fill="black" stroke="black" points="206.14,-518.66 212.82,-510.44 202.47,-512.7 206.14,-518.66"/>
</g>
<!-- Textarea -->
<g id="node24" class="node">
<title>Textarea</title>
<polygon fill="none" stroke="black" points="275.38,-245 207.62,-245 207.62,-209 275.38,-209 275.38,-245"/>
<text xml:space="preserve" text-anchor="middle" x="241.5" y="-221.57" font-family="Arial" font-size="14.00">Textarea</text>
</g>
<!-- Contact&#45;&gt;Textarea -->
<g id="edge10" class="edge">
<title>Contact&#45;&gt;Textarea</title>
<path fill="none" stroke="black" d="M127.44,-1061.84C135.79,-1057.93 143.47,-1052.51 148.75,-1045 199.29,-973.06 117.8,-325.65 168.75,-254 175.4,-244.64 185.72,-238.53 196.47,-234.53"/>
<polygon fill="black" stroke="black" points="197.28,-237.94 205.8,-231.64 195.22,-231.25 197.28,-237.94"/>
</g>
<!-- SubmitButton -->
<g id="node27" class="node">
<title>SubmitButton</title>
<polygon fill="none" stroke="black" points="290.38,-299 192.62,-299 192.62,-263 290.38,-263 290.38,-299"/>
<text xml:space="preserve" text-anchor="middle" x="241.5" y="-275.57" font-family="Arial" font-size="14.00">SubmitButton</text>
</g>
<!-- Contact&#45;&gt;SubmitButton -->
<g id="edge11" class="edge">
<title>Contact&#45;&gt;SubmitButton</title>
<path fill="none" stroke="black" d="M127.43,-1061.83C135.78,-1057.92 143.47,-1052.5 148.75,-1045 195.91,-978.01 121.22,-374.72 168.75,-308 172.37,-302.92 177.07,-298.79 182.33,-295.44"/>
<polygon fill="black" stroke="black" points="183.73,-298.66 190.96,-290.92 180.48,-292.46 183.73,-298.66"/>
</g>
<!-- Donate -->
<g id="node4" class="node">
<title>Donate</title>
<polygon fill="#4a90e2" stroke="black" points="125.75,-1144 31,-1144 31,-1108 125.75,-1108 125.75,-1144"/>
<text xml:space="preserve" text-anchor="middle" x="78.38" y="-1120.58" font-family="Arial" font-size="14.00" fill="white">Donate Page</text>
</g>
<!-- Donate&#45;&gt;Nav -->
<g id="edge13" class="edge">
<title>Donate&#45;&gt;Nav</title>
<path fill="none" stroke="black" d="M125.98,-1133.81C146.04,-1137.17 169.54,-1141.11 190.01,-1144.54"/>
<polygon fill="black" stroke="black" points="189.42,-1147.99 199.86,-1146.19 190.57,-1141.08 189.42,-1147.99"/>
</g>
<!-- Donate&#45;&gt;Footer -->
<g id="edge17" class="edge">
<title>Donate&#45;&gt;Footer</title>
<path fill="none" stroke="black" d="M126.09,-1139.99C134.08,-1143.52 141.97,-1147.82 148.75,-1153 160.62,-1162.06 156.83,-1171 168.75,-1180 178.81,-1187.6 191.25,-1193.27 202.93,-1197.4"/>
<polygon fill="black" stroke="black" points="201.76,-1200.7 212.35,-1200.43 203.91,-1194.04 201.76,-1200.7"/>
</g>
<!-- Donate&#45;&gt;Container -->
<g id="edge26" class="edge">
<title>Donate&#45;&gt;Container</title>
<path fill="none" stroke="black" d="M126.02,-1136.36C134.7,-1140.26 142.87,-1145.62 148.75,-1153 186.58,-1200.42 130.66,-1240.8 168.75,-1288 175.07,-1295.83 183.9,-1301.38 193.23,-1305.33"/>
<polygon fill="black" stroke="black" points="191.83,-1308.55 202.42,-1308.63 194.19,-1301.96 191.83,-1308.55"/>
</g>
<!-- Donate&#45;&gt;Section -->
<g id="edge30" class="edge">
<title>Donate&#45;&gt;Section</title>
<path fill="none" stroke="black" d="M126.21,-1137.12C134.66,-1140.96 142.69,-1146.11 148.75,-1153 173.22,-1180.86 144.12,-1206.28 168.75,-1234 176.86,-1243.12 188.36,-1249.17 199.79,-1253.18"/>
<polygon fill="black" stroke="black" points="198.58,-1256.47 209.16,-1256 200.59,-1249.77 198.58,-1256.47"/>
</g>
<!-- Button -->
<g id="node13" class="node">
<title>Button</title>
<polygon fill="none" stroke="black" points="269,-600 214,-600 214,-564 269,-564 269,-600"/>
<text xml:space="preserve" text-anchor="middle" x="241.5" y="-576.58" font-family="Arial" font-size="14.00">Button</text>
</g>
<!-- Donate&#45;&gt;Button -->
<g id="edge16" class="edge">
<title>Donate&#45;&gt;Button</title>
<path fill="none" stroke="black" d="M125.93,-1116.42C134.83,-1112.47 143.12,-1106.89 148.75,-1099 180.42,-1054.66 136.83,-653.16 168.75,-609 176.71,-597.99 189.73,-591.46 202.51,-587.6"/>
<polygon fill="black" stroke="black" points="203.23,-591.03 212.08,-585.21 201.53,-584.24 203.23,-591.03"/>
</g>
<!-- Donate&#45;&gt;Form -->
<g id="edge14" class="edge">
<title>Donate&#45;&gt;Form</title>
<path fill="none" stroke="black" d="M126.01,-1116.48C134.91,-1112.53 143.17,-1106.93 148.75,-1099 195.91,-1032.01 121.22,-428.72 168.75,-362 176.75,-350.77 190.04,-344.2 203.01,-340.37"/>
<polygon fill="black" stroke="black" points="203.83,-343.77 212.73,-338.01 202.18,-336.97 203.83,-343.77"/>
</g>
<!-- Donate&#45;&gt;Input -->
<g id="edge15" class="edge">
<title>Donate&#45;&gt;Input</title>
<path fill="none" stroke="black" d="M125.95,-1116.44C134.85,-1112.49 143.13,-1106.9 148.75,-1099 183.99,-1049.43 140.85,-606.04 168.75,-552 176.57,-536.85 190.68,-524.65 204.32,-515.63"/>
<polygon fill="black" stroke="black" points="206.11,-518.64 212.79,-510.42 202.44,-512.68 206.11,-518.64"/>
</g>
<!-- Admin -->
<g id="node5" class="node">
<title>Admin</title>
<polygon fill="#e74c3c" stroke="black" points="140.75,-1036 16,-1036 16,-1000 140.75,-1000 140.75,-1036"/>
<text xml:space="preserve" text-anchor="middle" x="78.38" y="-1012.58" font-family="Arial" font-size="14.00" fill="white">Admin Dashboard</text>
</g>
<!-- Admin&#45;&gt;Nav -->
<g id="edge18" class="edge">
<title>Admin&#45;&gt;Nav</title>
<path fill="none" stroke="black" d="M139.18,-1036.48C142.69,-1038.97 145.93,-1041.8 148.75,-1045 173.22,-1072.86 144.12,-1098.28 168.75,-1126 174.72,-1132.72 182.53,-1137.77 190.79,-1141.56"/>
<polygon fill="black" stroke="black" points="189.4,-1144.78 199.99,-1145.18 191.96,-1138.27 189.4,-1144.78"/>
</g>
<!-- Grid -->
<g id="node10" class="node">
<title>Grid</title>
<polygon fill="none" stroke="black" points="268.5,-1117 214.5,-1117 214.5,-1081 268.5,-1081 268.5,-1117"/>
<text xml:space="preserve" text-anchor="middle" x="241.5" y="-1093.58" font-family="Arial" font-size="14.00">Grid</text>
</g>
<!-- Admin&#45;&gt;Grid -->
<g id="edge22" class="edge">
<title>Admin&#45;&gt;Grid</title>
<path fill="none" stroke="black" d="M134.52,-1036.41C139.52,-1038.97 144.34,-1041.83 148.75,-1045 160.02,-1053.11 157.58,-1060.75 168.75,-1069 179.14,-1076.68 191.8,-1082.8 203.56,-1087.47"/>
<polygon fill="black" stroke="black" points="202.02,-1090.63 212.61,-1090.82 204.45,-1084.07 202.02,-1090.63"/>
</g>
<!-- Table -->
<g id="node28" class="node">
<title>Table</title>
<polygon fill="none" stroke="black" points="268.5,-106 214.5,-106 214.5,-70 268.5,-70 268.5,-106"/>
<text xml:space="preserve" text-anchor="middle" x="241.5" y="-82.58" font-family="Arial" font-size="14.00">Table</text>
</g>
<!-- Admin&#45;&gt;Table -->
<g id="edge19" class="edge">
<title>Admin&#45;&gt;Table</title>
<path fill="none" stroke="black" d="M80.04,-999.6C84.61,-877.59 112.81,-187.87 168.75,-115 177.09,-104.14 190.31,-97.65 203.14,-93.77"/>
<polygon fill="black" stroke="black" points="203.88,-97.19 212.72,-91.36 202.17,-90.4 203.88,-97.19"/>
</g>
<!-- DataCard -->
<g id="node29" class="node">
<title>DataCard</title>
<polygon fill="none" stroke="black" points="278.38,-160 204.62,-160 204.62,-124 278.38,-124 278.38,-160"/>
<text xml:space="preserve" text-anchor="middle" x="241.5" y="-136.57" font-family="Arial" font-size="14.00">DataCard</text>
</g>
<!-- Admin&#45;&gt;DataCard -->
<g id="edge20" class="edge">
<title>Admin&#45;&gt;DataCard</title>
<path fill="none" stroke="black" d="M79.44,-999.82C80.13,-892.47 87.62,-341.16 168.75,-197 175.43,-185.14 185.81,-175 196.63,-166.78"/>
<polygon fill="black" stroke="black" points="198.37,-169.84 204.51,-161.21 194.32,-164.13 198.37,-169.84"/>
</g>
<!-- Pagination -->
<g id="node30" class="node">
<title>Pagination</title>
<polygon fill="none" stroke="black" points="281.38,-52 201.62,-52 201.62,-16 281.38,-16 281.38,-52"/>
<text xml:space="preserve" text-anchor="middle" x="241.5" y="-28.57" font-family="Arial" font-size="14.00">Pagination</text>
</g>
<!-- Admin&#45;&gt;Pagination -->
<g id="edge21" class="edge">
<title>Admin&#45;&gt;Pagination</title>
<path fill="none" stroke="black" d="M79.93,-999.73C83.9,-873.92 109.52,-138.59 168.75,-61 174.38,-53.63 182.25,-48.27 190.74,-44.37"/>
<polygon fill="black" stroke="black" points="191.8,-47.72 199.88,-40.86 189.29,-41.19 191.8,-47.72"/>
</g>
<!-- PageHeader -->
<g id="node11" class="node">
<title>PageHeader</title>
<polygon fill="none" stroke="black" points="287.38,-1387 195.62,-1387 195.62,-1351 287.38,-1351 287.38,-1387"/>
<text xml:space="preserve" text-anchor="middle" x="241.5" y="-1363.58" font-family="Arial" font-size="14.00">PageHeader</text>
</g>
<!-- Layout -->
<g id="node12" class="node">
<title>Layout</title>
<polygon fill="none" stroke="black" points="269.75,-1441 213.25,-1441 213.25,-1405 269.75,-1405 269.75,-1441"/>
<text xml:space="preserve" text-anchor="middle" x="241.5" y="-1417.58" font-family="Arial" font-size="14.00">Layout</text>
</g>
<!-- Card -->
<g id="node18" class="node">
<title>Card</title>
<polygon fill="none" stroke="black" points="268.5,-870 214.5,-870 214.5,-834 268.5,-834 268.5,-870"/>
<text xml:space="preserve" text-anchor="middle" x="241.5" y="-846.58" font-family="Arial" font-size="14.00">Card</text>
</g>
<!-- Badge -->
<g id="node19" class="node">
<title>Badge</title>
<polygon fill="none" stroke="black" points="269,-924 214,-924 214,-888 269,-888 269,-924"/>
<text xml:space="preserve" text-anchor="middle" x="241.5" y="-900.58" font-family="Arial" font-size="14.00">Badge</text>
</g>
<!-- Icon -->
<g id="node20" class="node">
<title>Icon</title>
<polygon fill="none" stroke="black" points="268.5,-978 214.5,-978 214.5,-942 268.5,-942 268.5,-978"/>
<text xml:space="preserve" text-anchor="middle" x="241.5" y="-954.58" font-family="Arial" font-size="14.00">Icon</text>
</g>
<!-- Image -->
<g id="node21" class="node">
<title>Image</title>
<polygon fill="none" stroke="black" points="268.62,-1032 214.38,-1032 214.38,-996 268.62,-996 268.62,-1032"/>
<text xml:space="preserve" text-anchor="middle" x="241.5" y="-1008.58" font-family="Arial" font-size="14.00">Image</text>
</g>
<!-- Select -->
<g id="node25" class="node">
<title>Select</title>
<polygon fill="none" stroke="black" points="268.5,-407 214.5,-407 214.5,-371 268.5,-371 268.5,-407"/>
<text xml:space="preserve" text-anchor="middle" x="241.5" y="-383.57" font-family="Arial" font-size="14.00">Select</text>
</g>
<!-- FileUpload -->
<g id="node26" class="node">
<title>FileUpload</title>
<polygon fill="none" stroke="black" points="281.75,-461 201.25,-461 201.25,-425 281.75,-425 281.75,-461"/>
<text xml:space="preserve" text-anchor="middle" x="241.5" y="-437.57" font-family="Arial" font-size="14.00">FileUpload</text>
</g>
</g>
</svg>
