<?xml version="1.0" encoding="UTF-8" standalone="no"?>
<!DOCTYPE svg PUBLIC "-//W3C//DTD SVG 1.1//EN"
 "http://www.w3.org/Graphics/SVG/1.1/DTD/svg11.dtd">
<!-- Generated by graphviz version 14.1.3 (20260303.0454)
 -->
<!-- Title: PhaseDependencies Pages: 1 -->
<svg width="1318pt" height="1162pt"
 viewBox="0.00 0.00 1318.00 1162.00" xmlns="http://www.w3.org/2000/svg" xmlns:xlink="http://www.w3.org/1999/xlink">
<g id="graph0" class="graph" transform="scale(1 1) rotate(0) translate(4 1157.75)">
<title>PhaseDependencies</title>
<polygon fill="white" stroke="none" points="-4,4 -4,-1157.75 1314,-1157.75 1314,4 -4,4"/>
<g id="clust1" class="cluster">
<title>cluster_legend</title>
<polygon fill="white" stroke="white" points="781,-978.75 781,-1145.75 961,-1145.75 961,-978.75 781,-978.75"/>
<text xml:space="preserve" text-anchor="middle" x="871" y="-1128.45" font-family="Times New Roman,serif" font-size="14.00">Timeline Legend</text>
</g>
<g id="clust2" class="cluster">
<title>cluster_deliverables</title>
<polygon fill="#f0f0f0" stroke="#f0f0f0" points="8,-8 8,-103.75 1302,-103.75 1302,-8 8,-8"/>
<text xml:space="preserve" text-anchor="middle" x="655" y="-86.45" font-family="Times New Roman,serif" font-size="14.00">Key Deliverables</text>
</g>
<!-- Phase0 -->
<g id="node1" class="node">
<title>Phase0</title>
<path fill="#ffd700" stroke="black" d="M441.62,-1077.62C441.62,-1077.62 282.38,-1077.62 282.38,-1077.62 276.38,-1077.62 270.38,-1071.62 270.38,-1065.62 270.38,-1065.62 270.38,-1034.38 270.38,-1034.38 270.38,-1028.38 276.38,-1022.38 282.38,-1022.38 282.38,-1022.38 441.62,-1022.38 441.62,-1022.38 447.62,-1022.38 453.62,-1028.38 453.62,-1034.38 453.62,-1034.38 453.62,-1065.62 453.62,-1065.62 453.62,-1071.62 447.62,-1077.62 441.62,-1077.62"/>
<text xml:space="preserve" text-anchor="middle" x="362" y="-1060.33" font-family="Arial" font-size="14.00">Phase 0</text>
<text xml:space="preserve" text-anchor="middle" x="362" y="-1044.58" font-family="Arial" font-size="14.00">Repo &amp; Infrastructure Setup</text>
<text xml:space="preserve" text-anchor="middle" x="362" y="-1028.83" font-family="Arial" font-size="14.00">(Week 1: Days 1&#45;2)</text>
</g>
<!-- Phase1 -->
<g id="node2" class="node">
<title>Phase1</title>
<path fill="#90ee90" stroke="black" d="M445.75,-935C445.75,-935 278.25,-935 278.25,-935 272.25,-935 266.25,-929 266.25,-923 266.25,-923 266.25,-891.75 266.25,-891.75 266.25,-885.75 272.25,-879.75 278.25,-879.75 278.25,-879.75 445.75,-879.75 445.75,-879.75 451.75,-879.75 457.75,-885.75 457.75,-891.75 457.75,-891.75 457.75,-923 457.75,-923 457.75,-929 451.75,-935 445.75,-935"/>
<text xml:space="preserve" text-anchor="middle" x="362" y="-917.7" font-family="Arial" font-size="14.00">Phase 1</text>
<text xml:space="preserve" text-anchor="middle" x="362" y="-901.95" font-family="Arial" font-size="14.00">Foundation &amp; Design System</text>
<text xml:space="preserve" text-anchor="middle" x="362" y="-886.2" font-family="Arial" font-size="14.00">(Week 1: Days 3&#45;5)</text>
</g>
<!-- Phase0&#45;&gt;Phase1 -->
<g id="edge1" class="edge">
<title>Phase0&#45;&gt;Phase1</title>
<path fill="none" stroke="black" stroke-width="2" d="M362,-1021.89C362,-1000.97 362,-971.73 362,-948.17"/>
<polygon fill="black" stroke="black" stroke-width="2" points="365.5,-948.43 362,-938.43 358.5,-948.43 365.5,-948.43"/>
<text xml:space="preserve" text-anchor="middle" x="410.75" y="-955.45" font-family="Arial" font-size="14.00">Setup Complete</text>
</g>
<!-- Phase4 -->
<g id="node5" class="node">
<title>Phase4</title>
<path fill="#87ceeb" stroke="black" d="M736.75,-614C736.75,-614 605.25,-614 605.25,-614 599.25,-614 593.25,-608 593.25,-602 593.25,-602 593.25,-570.75 593.25,-570.75 593.25,-564.75 599.25,-558.75 605.25,-558.75 605.25,-558.75 736.75,-558.75 736.75,-558.75 742.75,-558.75 748.75,-564.75 748.75,-570.75 748.75,-570.75 748.75,-602 748.75,-602 748.75,-608 742.75,-614 736.75,-614"/>
<text xml:space="preserve" text-anchor="middle" x="671" y="-596.7" font-family="Arial" font-size="14.00">Phase 4</text>
<text xml:space="preserve" text-anchor="middle" x="671" y="-580.95" font-family="Arial" font-size="14.00">Interactive Pages &amp; DB</text>
<text xml:space="preserve" text-anchor="middle" x="671" y="-565.2" font-family="Arial" font-size="14.00">(Week 4)</text>
</g>
<!-- Phase0&#45;&gt;Phase4 -->
<g id="edge9" class="edge">
<title>Phase0&#45;&gt;Phase4</title>
<path fill="none" stroke="#0078d4" stroke-dasharray="5,2" d="M453.87,-1044.93C544.96,-1035.38 671,-1004.74 671,-908.38 671,-908.38 671,-908.38 671,-692.38 671,-670.23 671,-645.46 671,-625.54"/>
<polygon fill="#0078d4" stroke="#0078d4" points="674.5,-625.65 671,-615.65 667.5,-625.65 674.5,-625.65"/>
<text xml:space="preserve" text-anchor="middle" x="699.88" y="-802.83" font-family="Arial" font-size="14.00">DB Setup</text>
<text xml:space="preserve" text-anchor="middle" x="699.88" y="-787.08" font-family="Arial" font-size="14.00">(Parallel)</text>
</g>
<!-- D0 -->
<g id="node11" class="node">
<title>D0</title>
<polygon fill="white" stroke="black" points="152.38,-71.25 15.62,-71.25 15.62,-16 158.38,-16 158.38,-65.25 152.38,-71.25"/>
<polyline fill="none" stroke="black" points="152.38,-71.25 152.38,-65.25"/>
<polyline fill="none" stroke="black" points="158.38,-65.25 152.38,-65.25"/>
<text xml:space="preserve" text-anchor="middle" x="87" y="-53.95" font-family="Arial" font-size="14.00">• GitHub Repo</text>
<text xml:space="preserve" text-anchor="middle" x="87" y="-38.2" font-family="Arial" font-size="14.00">• Azure Infrastructure</text>
<text xml:space="preserve" text-anchor="middle" x="87" y="-22.45" font-family="Arial" font-size="14.00">• CI/CD Pipelines</text>
</g>
<!-- Phase0&#45;&gt;D0 -->
<g id="edge10" class="edge">
<title>Phase0&#45;&gt;D0</title>
<path fill="none" stroke="black" stroke-dasharray="1,5" d="M299.81,-1021.98C257.07,-998.75 208,-960.69 208,-908.38 208,-908.38 208,-908.38 208,-157.38 208,-136.55 169.16,-103.13 135.49,-78.07"/>
<polygon fill="black" stroke="black" points="137.98,-75.56 127.84,-72.47 133.84,-81.2 137.98,-75.56"/>
</g>
<!-- Phase2 -->
<g id="node3" class="node">
<title>Phase2</title>
<path fill="#90ee90" stroke="black" d="M445.75,-828C445.75,-828 338.25,-828 338.25,-828 332.25,-828 326.25,-822 326.25,-816 326.25,-816 326.25,-784.75 326.25,-784.75 326.25,-778.75 332.25,-772.75 338.25,-772.75 338.25,-772.75 445.75,-772.75 445.75,-772.75 451.75,-772.75 457.75,-778.75 457.75,-784.75 457.75,-784.75 457.75,-816 457.75,-816 457.75,-822 451.75,-828 445.75,-828"/>
<text xml:space="preserve" text-anchor="middle" x="392" y="-810.7" font-family="Arial" font-size="14.00">Phase 2</text>
<text xml:space="preserve" text-anchor="middle" x="392" y="-794.95" font-family="Arial" font-size="14.00">Component Library</text>
<text xml:space="preserve" text-anchor="middle" x="392" y="-779.2" font-family="Arial" font-size="14.00">(Week 2)</text>
</g>
<!-- Phase1&#45;&gt;Phase2 -->
<g id="edge2" class="edge">
<title>Phase1&#45;&gt;Phase2</title>
<path fill="none" stroke="black" stroke-width="2" d="M369.73,-879.33C373.09,-867.58 377.09,-853.57 380.77,-840.7"/>
<polygon fill="black" stroke="black" stroke-width="2" points="384.09,-841.81 383.47,-831.23 377.36,-839.89 384.09,-841.81"/>
<text xml:space="preserve" text-anchor="middle" x="445.92" y="-848.45" font-family="Arial" font-size="14.00">Design System Ready</text>
</g>
<!-- D1 -->
<g id="node12" class="node">
<title>D1</title>
<polygon fill="white" stroke="black" points="307.38,-63.38 176.62,-63.38 176.62,-23.88 313.38,-23.88 313.38,-57.38 307.38,-63.38"/>
<polyline fill="none" stroke="black" points="307.38,-63.38 307.38,-57.38"/>
<polyline fill="none" stroke="black" points="313.38,-57.38 307.38,-57.38"/>
<text xml:space="preserve" text-anchor="middle" x="245" y="-46.08" font-family="Arial" font-size="14.00">• Design System</text>
<text xml:space="preserve" text-anchor="middle" x="245" y="-30.32" font-family="Arial" font-size="14.00">• Database Schema</text>
</g>
<!-- Phase1&#45;&gt;D1 -->
<g id="edge11" class="edge">
<title>Phase1&#45;&gt;D1</title>
<path fill="none" stroke="black" stroke-dasharray="1,5" d="M319.9,-879.27C296.48,-860.6 272,-833.43 272,-801.38 272,-801.38 272,-801.38 272,-157.38 272,-128.75 263.67,-97.13 256.26,-74.68"/>
<polygon fill="black" stroke="black" points="259.58,-73.59 253.01,-65.27 252.97,-75.87 259.58,-73.59"/>
</g>
<!-- Phase3 -->
<g id="node4" class="node">
<title>Phase3</title>
<path fill="#87ceeb" stroke="black" d="M576.75,-721C576.75,-721 445.25,-721 445.25,-721 439.25,-721 433.25,-715 433.25,-709 433.25,-709 433.25,-677.75 433.25,-677.75 433.25,-671.75 439.25,-665.75 445.25,-665.75 445.25,-665.75 576.75,-665.75 576.75,-665.75 582.75,-665.75 588.75,-671.75 588.75,-677.75 588.75,-677.75 588.75,-709 588.75,-709 588.75,-715 582.75,-721 576.75,-721"/>
<text xml:space="preserve" text-anchor="middle" x="511" y="-703.7" font-family="Arial" font-size="14.00">Phase 3</text>
<text xml:space="preserve" text-anchor="middle" x="511" y="-687.95" font-family="Arial" font-size="14.00">Content &amp; Static Pages</text>
<text xml:space="preserve" text-anchor="middle" x="511" y="-672.2" font-family="Arial" font-size="14.00">(Week 3)</text>
</g>
<!-- Phase2&#45;&gt;Phase3 -->
<g id="edge3" class="edge">
<title>Phase2&#45;&gt;Phase3</title>
<path fill="none" stroke="black" stroke-width="2" d="M422.65,-772.33C437.36,-759.35 455.18,-743.63 470.95,-729.71"/>
<polygon fill="black" stroke="black" stroke-width="2" points="473.01,-732.57 478.19,-723.33 468.37,-727.32 473.01,-732.57"/>
<text xml:space="preserve" text-anchor="middle" x="512.25" y="-741.45" font-family="Arial" font-size="14.00">Components Built</text>
</g>
<!-- D2 -->
<g id="node13" class="node">
<title>D2</title>
<polygon fill="white" stroke="black" points="446.5,-61.62 331.5,-61.62 331.5,-25.62 452.5,-25.62 452.5,-55.62 446.5,-61.62"/>
<polyline fill="none" stroke="black" points="446.5,-61.62 446.5,-55.62"/>
<polyline fill="none" stroke="black" points="452.5,-55.62 446.5,-55.62"/>
<text xml:space="preserve" text-anchor="middle" x="392" y="-38.2" font-family="Arial" font-size="14.00">• 39 Components</text>
</g>
<!-- Phase2&#45;&gt;D2 -->
<g id="edge12" class="edge">
<title>Phase2&#45;&gt;D2</title>
<path fill="none" stroke="black" stroke-dasharray="1,5" d="M392,-772.62C392,-751.4 392,-720.99 392,-694.38 392,-694.38 392,-694.38 392,-157.38 392,-128.67 392,-95.85 392,-73.06"/>
<polygon fill="black" stroke="black" points="395.5,-73.33 392,-63.33 388.5,-73.33 395.5,-73.33"/>
</g>
<!-- Phase3&#45;&gt;Phase4 -->
<g id="edge4" class="edge">
<title>Phase3&#45;&gt;Phase4</title>
<path fill="none" stroke="black" stroke-width="2" d="M521.21,-665.4C526.78,-653.77 534.72,-640.83 545.25,-632 555.78,-623.17 568.19,-616.03 581.03,-610.28"/>
<polygon fill="black" stroke="black" stroke-width="2" points="582.2,-613.58 590.11,-606.53 579.53,-607.11 582.2,-613.58"/>
<text xml:space="preserve" text-anchor="middle" x="601.12" y="-634.45" font-family="Arial" font-size="14.00">Static Pages Done</text>
</g>
<!-- D3 -->
<g id="node14" class="node">
<title>D3</title>
<polygon fill="white" stroke="black" points="577,-61.62 471,-61.62 471,-25.62 583,-25.62 583,-55.62 577,-61.62"/>
<polyline fill="none" stroke="black" points="577,-61.62 577,-55.62"/>
<polyline fill="none" stroke="black" points="583,-55.62 577,-55.62"/>
<text xml:space="preserve" text-anchor="middle" x="527" y="-38.2" font-family="Arial" font-size="14.00">• 4 Static Pages</text>
</g>
<!-- Phase3&#45;&gt;D3 -->
<g id="edge13" class="edge">
<title>Phase3&#45;&gt;D3</title>
<path fill="none" stroke="black" stroke-dasharray="1,5" d="M511,-665.62C511,-644.4 511,-613.99 511,-587.38 511,-587.38 511,-587.38 511,-157.38 511,-128.55 516.19,-95.99 520.66,-73.29"/>
<polygon fill="black" stroke="black" points="524.07,-74.08 522.66,-63.58 517.21,-72.66 524.07,-74.08"/>
</g>
<!-- Phase5 -->
<g id="node6" class="node">
<title>Phase5</title>
<path fill="#dda0dd" stroke="black" d="M898.12,-507C898.12,-507 753.88,-507 753.88,-507 747.88,-507 741.88,-501 741.88,-495 741.88,-495 741.88,-463.75 741.88,-463.75 741.88,-457.75 747.88,-451.75 753.88,-451.75 753.88,-451.75 898.12,-451.75 898.12,-451.75 904.12,-451.75 910.12,-457.75 910.12,-463.75 910.12,-463.75 910.12,-495 910.12,-495 910.12,-501 904.12,-507 898.12,-507"/>
<text xml:space="preserve" text-anchor="middle" x="826" y="-489.7" font-family="Arial" font-size="14.00">Phase 5</text>
<text xml:space="preserve" text-anchor="middle" x="826" y="-473.95" font-family="Arial" font-size="14.00">Auth &amp; Admin Dashboard</text>
<text xml:space="preserve" text-anchor="middle" x="826" y="-458.2" font-family="Arial" font-size="14.00">(Week 5)</text>
</g>
<!-- Phase4&#45;&gt;Phase5 -->
<g id="edge5" class="edge">
<title>Phase4&#45;&gt;Phase5</title>
<path fill="none" stroke="black" stroke-width="2" d="M710.92,-558.33C730.62,-544.99 754.61,-528.74 775.57,-514.54"/>
<polygon fill="black" stroke="black" stroke-width="2" points="777.4,-517.53 783.71,-509.02 773.47,-511.73 777.4,-517.53"/>
<text xml:space="preserve" text-anchor="middle" x="810.66" y="-527.45" font-family="Arial" font-size="14.00">DB &amp; APIs Ready</text>
</g>
<!-- D4 -->
<g id="node15" class="node">
<title>D4</title>
<polygon fill="white" stroke="black" points="735.25,-63.38 600.75,-63.38 600.75,-23.88 741.25,-23.88 741.25,-57.38 735.25,-63.38"/>
<polyline fill="none" stroke="black" points="735.25,-63.38 735.25,-57.38"/>
<polyline fill="none" stroke="black" points="741.25,-57.38 735.25,-57.38"/>
<text xml:space="preserve" text-anchor="middle" x="671" y="-46.08" font-family="Arial" font-size="14.00">• 4 Interactive Pages</text>
<text xml:space="preserve" text-anchor="middle" x="671" y="-30.32" font-family="Arial" font-size="14.00">• API Routes</text>
</g>
<!-- Phase4&#45;&gt;D4 -->
<g id="edge14" class="edge">
<title>Phase4&#45;&gt;D4</title>
<path fill="none" stroke="black" stroke-dasharray="1,5" d="M671,-558.62C671,-537.4 671,-506.99 671,-480.38 671,-480.38 671,-480.38 671,-157.38 671,-129.5 671,-97.75 671,-75.06"/>
<polygon fill="black" stroke="black" points="674.5,-75.29 671,-65.29 667.5,-75.29 674.5,-75.29"/>
</g>
<!-- Phase6 -->
<g id="node7" class="node">
<title>Phase6</title>
<path fill="#dda0dd" stroke="black" d="M1013.38,-400C1013.38,-400 918.62,-400 918.62,-400 912.62,-400 906.62,-394 906.62,-388 906.62,-388 906.62,-356.75 906.62,-356.75 906.62,-350.75 912.62,-344.75 918.62,-344.75 918.62,-344.75 1013.38,-344.75 1013.38,-344.75 1019.38,-344.75 1025.38,-350.75 1025.38,-356.75 1025.38,-356.75 1025.38,-388 1025.38,-388 1025.38,-394 1019.38,-400 1013.38,-400"/>
<text xml:space="preserve" text-anchor="middle" x="966" y="-382.7" font-family="Arial" font-size="14.00">Phase 6</text>
<text xml:space="preserve" text-anchor="middle" x="966" y="-366.95" font-family="Arial" font-size="14.00">Stripe Integration</text>
<text xml:space="preserve" text-anchor="middle" x="966" y="-351.2" font-family="Arial" font-size="14.00">(Week 6)</text>
</g>
<!-- Phase5&#45;&gt;Phase6 -->
<g id="edge6" class="edge">
<title>Phase5&#45;&gt;Phase6</title>
<path fill="none" stroke="black" stroke-width="2" d="M862.05,-451.33C879.61,-438.17 900.92,-422.18 919.67,-408.12"/>
<polygon fill="black" stroke="black" stroke-width="2" points="921.75,-410.94 927.65,-402.14 917.55,-405.34 921.75,-410.94"/>
<text xml:space="preserve" text-anchor="middle" x="944.88" y="-420.45" font-family="Arial" font-size="14.00">Auth Working</text>
</g>
<!-- D5 -->
<g id="node16" class="node">
<title>D5</title>
<polygon fill="white" stroke="black" points="886.5,-61.62 759.5,-61.62 759.5,-25.62 892.5,-25.62 892.5,-55.62 886.5,-61.62"/>
<polyline fill="none" stroke="black" points="886.5,-61.62 886.5,-55.62"/>
<polyline fill="none" stroke="black" points="892.5,-55.62 886.5,-55.62"/>
<text xml:space="preserve" text-anchor="middle" x="826" y="-38.2" font-family="Arial" font-size="14.00">• Admin Dashboard</text>
</g>
<!-- Phase5&#45;&gt;D5 -->
<g id="edge15" class="edge">
<title>Phase5&#45;&gt;D5</title>
<path fill="none" stroke="black" stroke-dasharray="1,5" d="M826,-451.62C826,-430.4 826,-399.99 826,-373.38 826,-373.38 826,-373.38 826,-157.38 826,-128.67 826,-95.85 826,-73.06"/>
<polygon fill="black" stroke="black" points="829.5,-73.33 826,-63.33 822.5,-73.33 829.5,-73.33"/>
</g>
<!-- Phase7 -->
<g id="node8" class="node">
<title>Phase7</title>
<path fill="#ffa07a" stroke="black" d="M1159.88,-293C1159.88,-293 1038.12,-293 1038.12,-293 1032.12,-293 1026.12,-287 1026.12,-281 1026.12,-281 1026.12,-249.75 1026.12,-249.75 1026.12,-243.75 1032.12,-237.75 1038.12,-237.75 1038.12,-237.75 1159.88,-237.75 1159.88,-237.75 1165.88,-237.75 1171.88,-243.75 1171.88,-249.75 1171.88,-249.75 1171.88,-281 1171.88,-281 1171.88,-287 1165.88,-293 1159.88,-293"/>
<text xml:space="preserve" text-anchor="middle" x="1099" y="-275.7" font-family="Arial" font-size="14.00">Phase 7</text>
<text xml:space="preserve" text-anchor="middle" x="1099" y="-259.95" font-family="Arial" font-size="14.00">Polish &amp; Optimization</text>
<text xml:space="preserve" text-anchor="middle" x="1099" y="-244.2" font-family="Arial" font-size="14.00">(Week 7)</text>
</g>
<!-- Phase6&#45;&gt;Phase7 -->
<g id="edge7" class="edge">
<title>Phase6&#45;&gt;Phase7</title>
<path fill="none" stroke="black" stroke-width="2" d="M1000.25,-344.33C1016.85,-331.23 1036.99,-315.33 1054.74,-301.32"/>
<polygon fill="black" stroke="black" stroke-width="2" points="1056.81,-304.14 1062.49,-295.2 1052.47,-298.65 1056.81,-304.14"/>
<text xml:space="preserve" text-anchor="middle" x="1098.21" y="-313.45" font-family="Arial" font-size="14.00">Features Complete</text>
</g>
<!-- D6 -->
<g id="node17" class="node">
<title>D6</title>
<polygon fill="white" stroke="black" points="1015.62,-61.62 910.38,-61.62 910.38,-25.62 1021.62,-25.62 1021.62,-55.62 1015.62,-61.62"/>
<polyline fill="none" stroke="black" points="1015.62,-61.62 1015.62,-55.62"/>
<polyline fill="none" stroke="black" points="1021.62,-55.62 1015.62,-55.62"/>
<text xml:space="preserve" text-anchor="middle" x="966" y="-38.2" font-family="Arial" font-size="14.00">• Donation Flow</text>
</g>
<!-- Phase6&#45;&gt;D6 -->
<g id="edge16" class="edge">
<title>Phase6&#45;&gt;D6</title>
<path fill="none" stroke="black" stroke-dasharray="1,5" d="M966,-344.36C966,-283.44 966,-135.82 966,-73.33"/>
<polygon fill="black" stroke="black" points="969.5,-73.53 966,-63.53 962.5,-73.53 969.5,-73.53"/>
</g>
<!-- Phase8 -->
<g id="node9" class="node">
<title>Phase8</title>
<path fill="#ff6b6b" stroke="black" d="M1280,-186C1280,-186 1156,-186 1156,-186 1150,-186 1144,-180 1144,-174 1144,-174 1144,-142.75 1144,-142.75 1144,-136.75 1150,-130.75 1156,-130.75 1156,-130.75 1280,-130.75 1280,-130.75 1286,-130.75 1292,-136.75 1292,-142.75 1292,-142.75 1292,-174 1292,-174 1292,-180 1286,-186 1280,-186"/>
<text xml:space="preserve" text-anchor="middle" x="1218" y="-168.7" font-family="Arial" font-size="14.00" fill="white">Phase 8</text>
<text xml:space="preserve" text-anchor="middle" x="1218" y="-152.95" font-family="Arial" font-size="14.00" fill="white">Testing &amp; Deployment</text>
<text xml:space="preserve" text-anchor="middle" x="1218" y="-137.2" font-family="Arial" font-size="14.00" fill="white">(Week 8)</text>
</g>
<!-- Phase7&#45;&gt;Phase8 -->
<g id="edge8" class="edge">
<title>Phase7&#45;&gt;Phase8</title>
<path fill="none" stroke="black" stroke-width="2" d="M1129.65,-237.33C1144.36,-224.35 1162.18,-208.63 1177.95,-194.71"/>
<polygon fill="black" stroke="black" stroke-width="2" points="1180.01,-197.57 1185.19,-188.33 1175.37,-192.32 1180.01,-197.57"/>
<text xml:space="preserve" text-anchor="middle" x="1196.75" y="-206.45" font-family="Arial" font-size="14.00">Optimized</text>
</g>
<!-- D7 -->
<g id="node18" class="node">
<title>D7</title>
<polygon fill="white" stroke="black" points="1152,-61.62 1040,-61.62 1040,-25.62 1158,-25.62 1158,-55.62 1152,-61.62"/>
<polyline fill="none" stroke="black" points="1152,-61.62 1152,-55.62"/>
<polyline fill="none" stroke="black" points="1158,-55.62 1152,-55.62"/>
<text xml:space="preserve" text-anchor="middle" x="1099" y="-38.2" font-family="Arial" font-size="14.00">• Lighthouse 95+</text>
</g>
<!-- Phase7&#45;&gt;D7 -->
<g id="edge17" class="edge">
<title>Phase7&#45;&gt;D7</title>
<path fill="none" stroke="black" stroke-dasharray="1,5" d="M1099,-237.43C1099,-195.81 1099,-116.23 1099,-73.48"/>
<polygon fill="black" stroke="black" points="1102.5,-73.49 1099,-63.49 1095.5,-73.49 1102.5,-73.49"/>
</g>
<!-- D8 -->
<g id="node19" class="node">
<title>D8</title>
<polygon fill="white" stroke="black" points="1288,-61.62 1176,-61.62 1176,-25.62 1294,-25.62 1294,-55.62 1288,-61.62"/>
<polyline fill="none" stroke="black" points="1288,-61.62 1288,-55.62"/>
<polyline fill="none" stroke="black" points="1294,-55.62 1288,-55.62"/>
<text xml:space="preserve" text-anchor="middle" x="1235" y="-38.2" font-family="Arial" font-size="14.00">• Production Live</text>
</g>
<!-- Phase8&#45;&gt;D8 -->
<g id="edge18" class="edge">
<title>Phase8&#45;&gt;D8</title>
<path fill="none" stroke="black" stroke-dasharray="1,5" d="M1222.07,-130.37C1224.67,-113.11 1228.04,-90.76 1230.69,-73.21"/>
<polygon fill="black" stroke="black" points="1234.13,-73.85 1232.16,-63.44 1227.21,-72.81 1234.13,-73.85"/>
</g>
<!-- legend -->
<g id="node10" class="node">
<title>legend</title>
<path fill="lightgrey" stroke="none" d="M940.5,-1113.25C940.5,-1113.25 801.5,-1113.25 801.5,-1113.25 795.5,-1113.25 789.5,-1107.25 789.5,-1101.25 789.5,-1101.25 789.5,-998.75 789.5,-998.75 789.5,-992.75 795.5,-986.75 801.5,-986.75 801.5,-986.75 940.5,-986.75 940.5,-986.75 946.5,-986.75 952.5,-992.75 952.5,-998.75 952.5,-998.75 952.5,-1101.25 952.5,-1101.25 952.5,-1107.25 946.5,-1113.25 940.5,-1113.25"/>
<polygon fill="#ffd700" stroke="none" points="797.5,-1089.5 797.5,-1109.25 817.5,-1109.25 817.5,-1089.5 797.5,-1089.5"/>
<text xml:space="preserve" text-anchor="start" x="805.62" y="-1094.5" font-family="Arial" font-size="14.00"> </text>
<text xml:space="preserve" text-anchor="start" x="819.5" y="-1094.5" font-family="Arial" font-size="14.00"> &#160;Setup Phase</text>
<polygon fill="#90ee90" stroke="none" points="797.5,-1069.75 797.5,-1089.5 817.5,-1089.5 817.5,-1069.75 797.5,-1069.75"/>
<text xml:space="preserve" text-anchor="start" x="805.62" y="-1074.75" font-family="Arial" font-size="14.00"> </text>
<text xml:space="preserve" text-anchor="start" x="819.5" y="-1074.75" font-family="Arial" font-size="14.00"> &#160;Foundation</text>
<polygon fill="#87ceeb" stroke="none" points="797.5,-1050 797.5,-1069.75 817.5,-1069.75 817.5,-1050 797.5,-1050"/>
<text xml:space="preserve" text-anchor="start" x="805.62" y="-1055" font-family="Arial" font-size="14.00"> </text>
<text xml:space="preserve" text-anchor="start" x="819.5" y="-1055" font-family="Arial" font-size="14.00"> &#160;Page Development</text>
<polygon fill="#dda0dd" stroke="none" points="797.5,-1030.25 797.5,-1050 817.5,-1050 817.5,-1030.25 797.5,-1030.25"/>
<text xml:space="preserve" text-anchor="start" x="805.62" y="-1035.25" font-family="Arial" font-size="14.00"> </text>
<text xml:space="preserve" text-anchor="start" x="819.5" y="-1035.25" font-family="Arial" font-size="14.00"> &#160;Backend Features</text>
<polygon fill="#ffa07a" stroke="none" points="797.5,-1010.5 797.5,-1030.25 817.5,-1030.25 817.5,-1010.5 797.5,-1010.5"/>
<text xml:space="preserve" text-anchor="start" x="805.62" y="-1015.5" font-family="Arial" font-size="14.00"> </text>
<text xml:space="preserve" text-anchor="start" x="819.5" y="-1015.5" font-family="Arial" font-size="14.00"> &#160;Optimization</text>
<polygon fill="#ff6b6b" stroke="none" points="797.5,-990.75 797.5,-1010.5 817.5,-1010.5 817.5,-990.75 797.5,-990.75"/>
<text xml:space="preserve" text-anchor="start" x="805.62" y="-995.75" font-family="Arial" font-size="14.00"> </text>
<text xml:space="preserve" text-anchor="start" x="819.5" y="-995.75" font-family="Arial" font-size="14.00"> &#160;Launch</text>
</g>
</g>
</svg>
