<?xml version="1.0" encoding="UTF-8" standalone="no"?>
<!DOCTYPE svg PUBLIC "-//W3C//DTD SVG 1.1//EN"
 "http://www.w3.org/Graphics/SVG/1.1/DTD/svg11.dtd">
<!-- Generated by graphviz version 14.1.3 (20260303.0454)
 -->
<!-- Title: SystemArchitecture Pages: 1 -->
<svg width="879pt" height="343pt"
 viewBox="0.00 0.00 879.00 343.00" xmlns="http://www.w3.org/2000/svg" xmlns:xlink="http://www.w3.org/1999/xlink">
<g id="graph0" class="graph" transform="scale(1 1) rotate(0) translate(4 338.81)">
<title>SystemArchitecture</title>
<polygon fill="white" stroke="none" points="-4,4 -4,-338.81 875,-338.81 875,4 -4,4"/>
<g id="clust1" class="cluster">
<title>cluster_azure</title>
<polygon fill="lightgrey" stroke="lightgrey" points="8,-8 8,-257.06 657,-257.06 657,-8 8,-8"/>
<text xml:space="preserve" text-anchor="middle" x="332.5" y="-239.76" font-family="Times New Roman,serif" font-size="14.00">Azure Cloud</text>
</g>
<g id="clust2" class="cluster">
<title>cluster_frontend</title>
<polygon fill="#e8f4f8" stroke="#e8f4f8" points="16,-23.41 16,-224.56 160,-224.56 160,-23.41 16,-23.41"/>
<text xml:space="preserve" text-anchor="middle" x="88" y="-207.26" font-family="Times New Roman,serif" font-size="14.00">Frontend</text>
</g>
<g id="clust3" class="cluster">
<title>cluster_backend</title>
<polygon fill="#f0f0f0" stroke="#f0f0f0" points="168,-16 168,-110.81 649,-110.81 649,-16 168,-16"/>
<text xml:space="preserve" text-anchor="middle" x="408.5" y="-93.51" font-family="Times New Roman,serif" font-size="14.00">Backend Services</text>
</g>
<g id="clust4" class="cluster">
<title>cluster_external</title>
<polygon fill="#fff0f0" stroke="#fff0f0" points="665,-23.41 665,-103.41 863,-103.41 863,-23.41 665,-23.41"/>
<text xml:space="preserve" text-anchor="middle" x="764" y="-86.11" font-family="Times New Roman,serif" font-size="14.00">External Services</text>
</g>
<!-- Browser -->
<g id="node1" class="node">
<title>Browser</title>
<ellipse fill="#e1f5ff" stroke="black" cx="88" cy="-316.81" rx="64.54" ry="18"/>
<text xml:space="preserve" text-anchor="middle" x="88" y="-311.39" font-family="Arial" font-size="14.00">Web Browser</text>
</g>
<!-- AppService -->
<g id="node2" class="node">
<title>AppService</title>
<polygon fill="#0078d4" stroke="black" points="151.5,-192.06 24.5,-192.06 24.5,-152.56 151.5,-152.56 151.5,-192.06"/>
<text xml:space="preserve" text-anchor="middle" x="88" y="-174.76" font-family="Arial" font-size="14.00" fill="white">Azure App Service</text>
<text xml:space="preserve" text-anchor="middle" x="88" y="-159.01" font-family="Arial" font-size="14.00" fill="white">Next.js 15</text>
</g>
<!-- Browser&#45;&gt;AppService -->
<g id="edge1" class="edge">
<title>Browser&#45;&gt;AppService</title>
<path fill="none" stroke="#0078d4" stroke-width="2" d="M88,-298.34C88,-275.22 88,-234.04 88,-205.28"/>
<polygon fill="#0078d4" stroke="#0078d4" stroke-width="2" points="91.5,-205.32 88,-195.32 84.5,-205.32 91.5,-205.32"/>
<text xml:space="preserve" text-anchor="middle" x="110.12" y="-267.51" font-family="Arial" font-size="14.00">HTTPS</text>
</g>
<!-- CDN -->
<g id="node3" class="node">
<title>CDN</title>
<polygon fill="#00a4ef" stroke="black" points="121.62,-70.91 28.38,-70.91 28.38,-31.41 121.62,-31.41 121.62,-70.91"/>
<text xml:space="preserve" text-anchor="middle" x="75" y="-53.61" font-family="Arial" font-size="14.00" fill="white">Azure CDN</text>
<text xml:space="preserve" text-anchor="middle" x="75" y="-37.86" font-family="Arial" font-size="14.00" fill="white">Static Assets</text>
</g>
<!-- AppService&#45;&gt;CDN -->
<g id="edge2" class="edge">
<title>AppService&#45;&gt;CDN</title>
<path fill="none" stroke="#00a4ef" d="M85.91,-152.17C83.86,-133.41 80.71,-104.52 78.32,-82.6"/>
<polygon fill="#00a4ef" stroke="#00a4ef" points="81.81,-82.32 77.25,-72.76 74.85,-83.08 81.81,-82.32"/>
<text xml:space="preserve" text-anchor="middle" x="122.42" y="-121.26" font-family="Arial" font-size="14.00">Static Assets</text>
</g>
<!-- DB -->
<g id="node4" class="node">
<title>DB</title>
<path fill="#336791" stroke="black" d="M282,-73.38C282,-76.1 258.24,-78.31 229,-78.31 199.76,-78.31 176,-76.1 176,-73.38 176,-73.38 176,-28.94 176,-28.94 176,-26.21 199.76,-24 229,-24 258.24,-24 282,-26.21 282,-28.94 282,-28.94 282,-73.38 282,-73.38"/>
<path fill="none" stroke="black" d="M282,-73.38C282,-70.65 258.24,-68.44 229,-68.44 199.76,-68.44 176,-70.65 176,-73.38"/>
<text xml:space="preserve" text-anchor="middle" x="229" y="-53.61" font-family="Arial" font-size="14.00" fill="white">PostgreSQL</text>
<text xml:space="preserve" text-anchor="middle" x="229" y="-37.86" font-family="Arial" font-size="14.00" fill="white">Flexible Server</text>
</g>
<!-- AppService&#45;&gt;DB -->
<g id="edge3" class="edge">
<title>AppService&#45;&gt;DB</title>
<path fill="none" stroke="#336791" stroke-width="2" d="M136.88,-152.22C146.7,-147.25 156.58,-141.34 165,-134.56 180.82,-121.82 195.06,-104.44 206.07,-88.92"/>
<polygon fill="#336791" stroke="#336791" stroke-width="2" points="208.69,-91.28 211.45,-81.05 202.91,-87.33 208.69,-91.28"/>
<text xml:space="preserve" text-anchor="middle" x="221.37" y="-121.26" font-family="Arial" font-size="14.00">SQL Queries</text>
</g>
<!-- Storage -->
<g id="node5" class="node">
<title>Storage</title>
<polygon fill="#ffd700" stroke="black" points="399.62,-70.91 300.38,-70.91 300.38,-31.41 399.62,-31.41 399.62,-70.91"/>
<text xml:space="preserve" text-anchor="middle" x="350" y="-53.61" font-family="Arial" font-size="14.00">Blob Storage</text>
<text xml:space="preserve" text-anchor="middle" x="350" y="-37.86" font-family="Arial" font-size="14.00">Resume Files</text>
</g>
<!-- AppService&#45;&gt;Storage -->
<g id="edge4" class="edge">
<title>AppService&#45;&gt;Storage</title>
<path fill="none" stroke="#ffd700" d="M151.75,-166.37C186.7,-161.67 229.93,-152.49 265,-134.56 290.36,-121.6 313.18,-98.52 328.77,-80.08"/>
<polygon fill="#ffd700" stroke="#ffd700" points="331.45,-82.33 335.07,-72.37 326.03,-77.9 331.45,-82.33"/>
<text xml:space="preserve" text-anchor="middle" x="323.41" y="-121.26" font-family="Arial" font-size="14.00">File Upload</text>
</g>
<!-- KeyVault -->
<g id="node6" class="node">
<title>KeyVault</title>
<polygon fill="#ff6b6b" stroke="black" points="490.5,-70.91 417.5,-70.91 417.5,-31.41 490.5,-31.41 490.5,-70.91"/>
<text xml:space="preserve" text-anchor="middle" x="454" y="-53.61" font-family="Arial" font-size="14.00" fill="white">Key Vault</text>
<text xml:space="preserve" text-anchor="middle" x="454" y="-37.86" font-family="Arial" font-size="14.00" fill="white">Secrets</text>
</g>
<!-- AppService&#45;&gt;KeyVault -->
<g id="edge5" class="edge">
<title>AppService&#45;&gt;KeyVault</title>
<path fill="none" stroke="#ff6b6b" d="M151.86,-168.78C208.24,-165.13 292.09,-156.24 362,-134.56 384.35,-127.63 390.98,-125.75 409,-110.81 419.29,-102.28 428.65,-90.99 436.14,-80.59"/>
<polygon fill="#ff6b6b" stroke="#ff6b6b" points="438.82,-82.87 441.61,-72.64 433.06,-78.9 438.82,-82.87"/>
<text xml:space="preserve" text-anchor="middle" x="434.47" y="-121.26" font-family="Arial" font-size="14.00">Get Secrets</text>
</g>
<!-- Insights -->
<g id="node7" class="node">
<title>Insights</title>
<polygon fill="#90ee90" stroke="black" points="641.12,-70.91 508.88,-70.91 508.88,-31.41 641.12,-31.41 641.12,-70.91"/>
<text xml:space="preserve" text-anchor="middle" x="575" y="-53.61" font-family="Arial" font-size="14.00">Application Insights</text>
<text xml:space="preserve" text-anchor="middle" x="575" y="-37.86" font-family="Arial" font-size="14.00">Monitoring</text>
</g>
<!-- AppService&#45;&gt;Insights -->
<g id="edge6" class="edge">
<title>AppService&#45;&gt;Insights</title>
<path fill="none" stroke="#90ee90" d="M151.91,-169.71C246.14,-166.59 417.33,-157.83 474,-134.56 489.85,-128.05 522.28,-100.42 546.13,-78.92"/>
<polygon fill="#90ee90" stroke="#90ee90" points="548.32,-81.67 553.37,-72.35 543.61,-76.49 548.32,-81.67"/>
<text xml:space="preserve" text-anchor="middle" x="535.9" y="-121.26" font-family="Arial" font-size="14.00">Logs/Metrics</text>
</g>
<!-- Stripe -->
<g id="node8" class="node">
<title>Stripe</title>
<polygon fill="#635bff" stroke="black" points="749.38,-70.91 672.62,-70.91 672.62,-31.41 749.38,-31.41 749.38,-70.91"/>
<text xml:space="preserve" text-anchor="middle" x="711" y="-53.61" font-family="Arial" font-size="14.00" fill="white">Stripe API</text>
<text xml:space="preserve" text-anchor="middle" x="711" y="-37.86" font-family="Arial" font-size="14.00" fill="white">Payments</text>
</g>
<!-- AppService&#45;&gt;Stripe -->
<g id="edge7" class="edge">
<title>AppService&#45;&gt;Stripe</title>
<path fill="none" stroke="#635bff" stroke-width="2" d="M151.76,-170.42C291.4,-167.99 615.27,-159.71 658,-134.56 677.42,-123.14 690.93,-101.48 699.45,-83.23"/>
<polygon fill="#635bff" stroke="#635bff" stroke-width="2" points="702.64,-84.67 703.37,-74.1 696.21,-81.91 702.64,-84.67"/>
<text xml:space="preserve" text-anchor="middle" x="729.41" y="-121.26" font-family="Arial" font-size="14.00">Process Payment</text>
</g>
<!-- Resend -->
<g id="node9" class="node">
<title>Resend</title>
<polygon fill="#000000" stroke="black" points="854.62,-70.91 767.38,-70.91 767.38,-31.41 854.62,-31.41 854.62,-70.91"/>
<text xml:space="preserve" text-anchor="middle" x="811" y="-53.61" font-family="Arial" font-size="14.00" fill="white">Resend API</text>
<text xml:space="preserve" text-anchor="middle" x="811" y="-37.86" font-family="Arial" font-size="14.00" fill="white">Emails</text>
</g>
<!-- AppService&#45;&gt;Resend -->
<g id="edge8" class="edge">
<title>AppService&#45;&gt;Resend</title>
<path fill="none" stroke="#000000" d="M151.71,-169.95C319.47,-166.09 762.32,-154.11 787,-134.56 802.45,-122.32 808.34,-100.74 810.43,-82.73"/>
<polygon fill="#000000" stroke="#000000" points="813.91,-83.02 811.2,-72.77 806.94,-82.47 813.91,-83.02"/>
<text xml:space="preserve" text-anchor="middle" x="834.78" y="-121.26" font-family="Arial" font-size="14.00">Send Email</text>
</g>
<!-- Stripe&#45;&gt;AppService -->
<g id="edge9" class="edge">
<title>Stripe&#45;&gt;AppService</title>
<path fill="none" stroke="#635bff" stroke-dasharray="5,2" d="M697.54,-71.25C687.02,-84.62 671.16,-101.67 653,-110.81 630.54,-122.12 620.11,-108.92 597,-118.81 586.6,-123.27 587.54,-130.46 577,-134.56 503.67,-163.09 281.29,-169.58 163.34,-170.99"/>
<polygon fill="#635bff" stroke="#635bff" points="163.39,-167.48 153.43,-171.09 163.46,-174.48 163.39,-167.48"/>
<text xml:space="preserve" text-anchor="middle" x="625.5" y="-121.26" font-family="Arial" font-size="14.00">Webhook</text>
</g>
</g>
</svg>
